<?xml version="1.0" encoding="utf-8"?>
<!-- Generator: Adobe Illustrator 26.3.1, SVG Export Plug-In . SVG Version: 6.00 Build 0)  -->
<svg version="1.1" id="Layer_1" xmlns="http://www.w3.org/2000/svg" xmlns:xlink="http://www.w3.org/1999/xlink" x="0px" y="0px"
	 viewBox="0 0 512 512" style="enable-background:new 0 0 512 512;" xml:space="preserve">
<g id="_x39_ZaFSo.tif">
	<g>
		<path d="M381.8,349.6c25.5-35.6,35.2-75,28.5-117.9c-5.8-37-23.3-68-51.6-92.7c-56.9-49.8-141.7-51.3-200.3-3.7
			c-32.3,26.3-51.5,60.3-56.8,101.6c-5.2,41.2,4.9,78.7,29.2,112.6c-0.8,0.2-1.3,0.5-1.9,0.6c-3.3,0.4-6.6,0.7-9.9,1.2
			c-1.9,0.3-3.1-0.3-4.2-2c-5.1-7.9-9.6-16.1-13.3-24.7c-6.4-14.5-10.6-29.6-12.7-45.3c-1.9-14.4-2.3-28.8-0.3-43.1
			c7.2-52.8,33.3-93.8,78.1-122.8c17.9-11.6,37.5-19,58.4-23c14.9-2.8,29.9-3.6,44.9-2.4c68.3,5.5,125.7,51.3,147,115.3
			c4.1,12.3,6.7,25,7.8,38c0.8,9,1,18,0.3,27c-2.1,29.2-11.2,56.1-27.1,80.8c-1.2,1.8-2.3,2.4-4.4,2.1c-3.5-0.5-7-0.9-10.4-1.3
			C382.7,349.9,382.3,349.8,381.8,349.6z" fill="white"/>
		<path d="M254,341c16.1,0.1,31.8-0.7,47.3,2.9c-31.2-1-62.3-1-93.5,0c9.1-1.9,18.3-3.3,27.9-3.5c15.8-41.3,31.6-82.5,47.5-124.1
			c-7.3-2.7-14.7-4.6-22.1-6.2c-7.4-1.6-14.8-2.7-22.8-2.8c0.3-0.9,0.4-1.6,0.7-2.2c11-23,28.5-39,52.4-48c9.7-3.7,19.8-6.1,29.9-8
			c2.2-0.4,3.8,0,5.5,1.8c9.4,10,14.8,21.8,17,35.2c1.6,10.1,1.2,20.1-0.7,30.1c-1.6,8.3-4.1,16.2-7.3,23.9
			c-0.4,0.9-0.8,1.7-1.4,2.9c-10.9-8.7-22.8-15.2-35.6-20.8C283.8,261.9,269,301.3,254,341z"  fill="white"/>
		<path d="M471.8,362.7c-0.3,0-0.7,0.1-1,0c-1.2-0.2-2.4-0.5-3.8-0.8c30.4-65,33.3-130.8,5.7-197.1c-18.7-45-49.2-80.4-90.2-106.6
			c-83-53-190-48.1-267.3,10.3C70,102.7,40.3,147.4,27.4,202.6c-12.9,55-6.4,108.1,18.3,159.2c-1.8,0.4-3.4,0.7-4.8,1
			C0.9,286.4,2.7,165,92.3,81C180.7-1.9,317.3-5.6,410,72C505.7,152.1,515.4,277.7,471.8,362.7z" fill="white"/>
		<path d="M31.6,364.5c-1.1,0.2-1.9,0.3-2.6,0.5c-39.4-77.3-38.7-202,53-290.2c90.6-87.2,232.6-94.1,331.3-15.1
			c101.4,81.2,116,212.5,70.4,305.3c-0.8-0.1-1.6-0.3-2.6-0.4c30.6-68,33-136.5,4.3-205.3c-20.2-48.4-53.2-86.4-97.7-114.1
			c-89.3-55.7-203.5-48.7-285,15.6C56.9,96.8,27,143.3,13.8,200.1C0.6,256.7,6.9,311.4,31.6,364.5z"  fill="white"/>
		<path d="M490.6,371.6c-0.4,1.9-0.7,3.3-1,5c-155.5-30.9-310.8-30.9-466.4,0c-0.4-1.6-0.7-3.2-1.1-5
			C178.3,340.6,334.2,340.6,490.6,371.6z"  fill="white"/>
		<path d="M301.3,140.3c-1,0.4-1.7,0.7-2.3,0.9c-14.4,4.9-28,11.3-40.3,20.4c-13.2,9.9-23.6,22.1-31.2,36.7
			c-0.4,0.8-0.9,1.6-1.3,2.4c-0.1,0.1-0.3,0.2-0.5,0.5c-10.4-3.3-21.1-6.1-32.4-5.9c0.2-0.6,0.2-1,0.4-1.4
			c6.7-13.8,15.2-26.1,27.1-36c11.3-9.3,24.2-15.1,38.5-17.9c7.7-1.5,15.5-2.3,23.3-2c5.5,0.2,10.9,1,16.4,1.6
			C299.6,139.6,300.2,139.9,301.3,140.3z" fill="white"/>
		<path d="M379.7,279.6c-4.6-5.7-9.6-10.6-15-15c-5.4-4.4-11.2-8.1-17.9-10.6c12.8-29.9,10.7-59.8,0.2-90.1c0.8,0.6,1.2,0.9,1.5,1.2
			c12.8,12.8,23.2,27.3,28.9,44.7c2.9,8.7,4.9,17.7,5.4,26.9c0.4,7.4,0.6,14.7,0.5,22.1c-0.1,6.6-1.3,13.1-3,19.4
			C380.2,278.5,380.1,278.8,379.7,279.6z" fill="white"/>
		<path d="M39.9,460.4c-0.3-0.6-0.5-0.9-0.5-1.2c-0.2-1.1-0.4-2.3-0.7-3.7c50.8-10.2,101.9-16.8,153.5-19.8
			c94.6-5.5,188.4,1.2,281.5,19.8c-0.1,0.9-0.1,1.5-0.2,2.1c-0.2,0.9-0.4,1.7-0.7,3C328.5,431.8,184.2,431.8,39.9,460.4z"  fill="white"/>
		<path d="M117.6,453c2.6-0.4,4.6-0.9,6.7-1c0.8,0,1.7,0.5,2.4,1c10.3,6.8,21.1,12.7,32.4,17.8c13.5,6.1,27.4,11.1,41.8,14.4
			c8.5,1.9,17.1,3.6,25.7,4.8c14.1,1.8,28.3,2.4,42.6,1.5c9.3-0.6,18.5-1.5,27.6-3.1c10.4-1.8,20.6-4.3,30.6-7.5
			c20.4-6.6,39.7-15.6,57.6-27.4c1.8-1.2,3.4-1.8,5.5-1.2c1.2,0.4,2.5,0.3,3.8,0.5c-3.7,4.9-34.7,21.7-51.3,28.1
			c-18.5,7-37.5,11.9-57.2,14.3c-19.6,2.3-39.2,2.3-58.8,0c-19.7-2.3-38.7-7.1-57.2-14.2C151.5,473.9,134.2,464.7,117.6,453z"  fill="white"/>
		<path d="M410.9,455.4c-89,71.2-221.2,70.6-309.2,0.1c1.9-1.1,3.5-0.8,5.3,0.5c23.1,17.4,48.5,30.2,76.1,38.8
			c9.4,2.9,19.1,5.2,28.8,6.9c19.6,3.6,39.3,4.6,59.2,3.5c9.8-0.6,19.5-1.8,29.2-3.5c35.4-6.3,67.7-19.8,97.3-40.1
			c2.6-1.8,5.1-3.7,7.7-5.5C408.1,454.2,407.3,454.3,410.9,455.4z" fill="white" />
		<path d="M67.4,409.4c0.5,0.7,0.9,1.2,1.3,1.7c3.6,5.3,0.9,12.3-5.3,13.6c-5.3,1.1-10.6,2-15.9,2.8c-3.2,0.5-4.3-0.3-4.9-3.5
			c-1.2-6.5-2.3-12.9-3.4-19.4c-0.1-0.6-0.2-1.3-0.2-1.9c0-1.9,0.7-2.9,2.5-3.3c5.8-1.1,11.7-2.3,17.5-3c5.6-0.7,10.4,5.1,9.1,10.6
			C68,407.8,67.7,408.6,67.4,409.4z M46.6,409.9c4.7-0.9,9.1-1.6,13.5-2.5c1.2-0.2,1.8-1.2,1.8-2.4c0-1.2-0.7-2.1-1.9-2.3
			c-0.6-0.1-1.3-0.1-1.9,0c-2.6,0.4-5.1,0.9-7.7,1.4c-1.6,0.3-3.1,0.6-4.9,0.9C46,406.7,46.3,408.1,46.6,409.9z M47.6,416.1
			c0.4,1.8,0.6,3.2,0.9,4.7c2.6-0.4,5-0.7,7.3-1.1c2-0.4,4.1-0.7,6.1-1.3c1.6-0.4,2.2-1.4,2-2.7c-0.2-1.3-1.2-2.2-2.8-2
			C56.7,414.5,52.3,415.3,47.6,416.1z"  fill="white"/>
		<path d="M438.4,408.1c0.3,1.8,0.7,3.2,0.8,4.6c0.1,5.3-3.9,9.2-9.2,8.9c-1.8-0.1-3.6-0.5-5.3-0.7c-3.8-0.6-7.6-1.1-11.4-1.7
			c-2.6-0.4-3.6-1.8-3.2-4.4c1-6.7,2-13.3,3-20c0.6-3.7,1.5-4.5,5.2-4c5.2,0.7,10.3,1.4,15.4,2.3c6.2,1,9.2,8.1,5.9,13.4
			C439.2,407.1,438.7,407.6,438.4,408.1z M418.4,402c1.2,0.3,2.1,0.5,2.9,0.6c3.3,0.5,6.6,1,9.9,1.4c1.7,0.3,3-0.5,3.4-1.9
			c0.3-1.4-0.5-2.6-2.4-2.9c-3-0.6-6-1-9-1.4c-1.3-0.2-2.6-0.4-4.1-0.6C418.8,399,418.6,400.4,418.4,402z M416.8,413
			c0.4,0.2,0.6,0.4,0.8,0.4c3.5,0.6,7.1,1.1,10.6,1.6c0.9,0.1,1.9,0.3,2.7,0.1c0.7-0.2,1.6-0.9,1.8-1.6c0.2-0.7-0.2-1.8-0.6-2.4
			c-0.4-0.5-1.4-0.7-2.2-0.9c-3.3-0.6-6.5-1-9.8-1.5c-0.9-0.1-1.7-0.1-2.8-0.2C417.1,410.2,416.9,411.6,416.8,413z"  fill="white"/>
		<path d="M74.3,408.3c-0.3-0.5-0.7-1-1-1.5c-3.7-5.6-0.6-12.8,6.1-13.8c4.9-0.7,9.8-1.5,14.7-2.2c0.7-0.1,1.4-0.2,2.1-0.2
			c1.6,0.1,2.8,1.1,3,2.6c0.2,1.5-0.5,2.8-2,3.4c-0.8,0.3-1.7,0.4-2.6,0.5c-4.4,0.7-8.9,1.3-13.3,2c-0.3,0-0.5,0.1-0.8,0.1
			c-1.8,0.4-2.7,1.5-2.3,3c0.3,1.3,1.6,2.1,3.1,1.9c1.9-0.3,3.7-0.6,5.6-0.9c3.4-0.5,6.7-1.1,10.1-1.5c1-0.1,2.1,0.3,3,0.8
			c1,0.6,1.3,1.7,0.9,2.9c-0.4,1.5-1.5,2.2-2.9,2.4c-3.6,0.6-7.3,1.1-10.9,1.6c-1.7,0.3-3.4,0.4-5.1,0.7c-1.2,0.2-2.1,0.9-2.2,2.1
			c0,0.8,0.4,1.8,1,2.3c0.5,0.4,1.5,0.5,2.3,0.4c3.1-0.4,6.2-0.9,9.3-1.3c2-0.3,3.9-0.6,5.9-0.9c0.4-0.1,0.7-0.1,1.1-0.1
			c1.8,0,3.2,1.2,3.4,2.9c0.1,1.4-1,2.9-2.7,3.2c-1.9,0.4-3.9,0.7-5.8,1c-3.2,0.5-6.5,0.7-9.6,1.4c-7.5,1.7-13.5-5.5-10.4-12.2
			C74.2,408.9,74.2,408.7,74.3,408.3z"  fill="white"/>
		<path d="M233.8,394.1c-0.4-0.7-0.8-1.3-1.1-1.9c-2.6-5.8,1.3-12.1,7.7-12.3c5.1-0.1,10.3-0.2,15.4-0.2c0.8,0,1.6,0,2.4,0.2
			c1.5,0.4,2.3,1.5,2.3,2.9c0,1.4-0.9,2.6-2.4,2.9c-0.7,0.2-1.4,0.1-2.1,0.1c-4.6,0-9.2,0-13.8,0.1c-0.9,0-1.8,0.2-2.6,0.5
			c-1.1,0.4-1.4,1.4-1.3,2.4c0.1,1.1,0.8,1.8,1.9,2c0.7,0.1,1.4,0.1,2.2,0.1c4.3,0,8.6-0.1,13-0.1c0.6,0,1.3,0,1.9,0
			c2,0.2,3.3,1.4,3.3,3.2c0,1.7-1.4,3.1-3.4,3.1c-4.9,0.1-9.7,0.1-14.6,0.1c-0.8,0-1.6,0-2.4,0.1c-1.2,0.3-1.8,1.1-1.8,2.4
			c0,1.2,0.7,2.1,1.9,2.3c0.7,0.2,1.4,0.1,2.2,0.1c4.5,0,9,0,13.5-0.1c0.6,0,1.3,0,1.9,0c1.7,0.2,2.8,1.4,2.8,3c0,1.5-1,2.9-2.5,3
			c-6.4,0.1-12.8,0.5-19.1,0c-5.3-0.5-8.3-6.5-6.4-11.5C232.9,395.8,233.3,395.1,233.8,394.1z"  fill="white"/>
		<path d="M469.7,405.5c-0.7-0.1-1.7-0.2-2.7-0.4c-4.2-0.8-8.5-1.5-12.7-2.3c-0.2,0-0.4-0.1-0.5-0.1c-1.9-0.2-3.1,0.6-3.3,2
			c-0.2,1.4,0.7,2.6,2.5,2.9c2.9,0.6,5.8,1.1,8.8,1.6c0.7,0.1,1.4,0.2,2.1,0.4c4.4,1,7.6,5.5,6.9,9.6c-0.9,5-4.9,8.2-9.8,7.5
			c-5.4-0.8-10.8-1.8-16.2-2.7c-0.5-0.1-1.1-0.2-1.6-0.5c-1.3-0.6-2.1-2-1.8-3.3c0.3-1.5,1.4-2.6,3-2.5c2.2,0.2,4.4,0.6,6.7,1
			c3.4,0.6,6.7,1.2,10.1,1.8c1.8,0.3,3.1-0.6,3.3-2c0.2-1.4-0.6-2.5-2.3-2.8c-3.5-0.7-7.1-1.3-10.6-1.9c-3.1-0.5-5.3-2.2-6.6-5
			c-1.5-3.1-1.1-6,0.8-8.7c1.9-2.7,4.7-4.1,7.9-3.7c5.7,0.8,11.3,1.9,17,3c2.1,0.4,3.1,1.8,2.8,3.6
			C473.3,404.6,472,405.6,469.7,405.5z"  fill="white"/>
		<path d="M296,394.9c0.1-3.4,0.3-6.8,0.4-10.3c0.2-3.4,1.2-4.4,4.5-4.2c3.6,0.1,7.2,0.2,10.8,0.5c7.7,0.6,13.3,7.1,13,14.9
			c-0.3,7.8-6.4,13.8-14.1,13.8c-3.9,0-7.7-0.3-11.6-0.5c-2.4-0.2-3.5-1.5-3.5-3.9C295.6,401.8,295.8,398.3,296,394.9
			C296,394.9,296,394.9,296,394.9z M301.9,402.5c2.3,0.6,8.9,0.9,10.4,0.6c3.4-0.7,6-4,6.1-7.7c0.1-3.5-2.1-7.1-5.3-7.9
			c-3.3-0.9-6.7-0.6-10.4-0.8C302.4,392.3,302.2,397.4,301.9,402.5z"  fill="white"/>
		<path d="M385.9,404.6c2.1-1.6,3.8-3,5.6-4.4c0.8-0.6,1.5-1.3,2.4-1.8c1.5-0.8,3.1-0.4,4.1,0.9c0.8,1.2,0.7,2.8-0.4,4
			c-0.3,0.3-0.7,0.6-1,0.9c-4.1,3.2-8.2,6.5-12.3,9.7c-0.4,0.3-0.7,0.6-1.1,0.8c-2.1,1.1-4.3,0-4.6-2.4c-0.1-0.6,0-1.3,0.1-1.9
			c0.4-3.4,0.7-6.8,1.2-10.2c0.9-6.1,5.2-10.9,10.9-12c6.2-1.1,11.6,0.5,15.5,6.3c1.6,2.4,2.3,5.1,2.1,7.9c-0.4,4-0.8,8.1-1.3,12.1
			c-0.3,2.2-1.7,3.4-3.6,3.2c-1.8-0.2-2.9-1.7-2.7-4c0.3-3.3,0.7-6.6,1.2-9.9c0.8-5-2.3-9.2-7.3-9.8c-4.3-0.5-8.3,2.9-8.7,7.7
			C386,402.5,385.9,403.3,385.9,404.6z"  fill="white"/>
		<path d="M111.2,406.3c1.8-2.3,3.4-4.3,5-6.3c1.8-2.2,3.6-2.7,5.2-1.5c1.2,0.9,1.5,3.2-0.2,5.3c-3.3,3.9-6.3,7.9-9.4,11.9
			c-0.3,0.4-0.5,0.7-0.9,1c-1.9,2-5,1.2-5.4-1.5c-0.7-4.5-1.4-9.1-1.5-13.7c-0.1-7.1,6.1-13,13.2-13.6c8.1-0.6,14.9,5.6,15.4,12.7
			c0.2,3.2,0.8,6.4,1.1,9.6c0.1,0.6,0.2,1.3,0.1,1.9c-0.1,1.6-1.2,2.7-2.7,2.9c-1.5,0.2-2.9-0.6-3.3-2.2c-0.4-1.4-0.5-2.8-0.7-4.3
			c-0.3-2.7-0.5-5.4-1-8c-0.6-3.6-3.7-6.3-7.3-6.5c-2.9-0.2-6.8,1.4-8.2,5.4C110,401.7,110.2,403.8,111.2,406.3z"  fill="white"/>
		<path d="M270.8,397c1.9-1.8,3.7-3.6,5.6-5.4c2.1-2,3.7-2.2,5.2-0.8c1.5,1.4,1.2,3.4-0.8,5.3c-3.7,3.6-7.4,7.1-11.1,10.7
			c-0.3,0.3-0.6,0.6-1,0.9c-2.1,1.4-4.8,0.3-4.9-2.1c0-5-0.2-10.1,0.7-15c1.1-6.7,7.5-10.9,14.9-10.6c6.5,0.3,12.4,5.4,13,11.9
			c0.4,4.6,0.1,9.3-0.1,14c-0.1,1.8-1.3,2.8-3,2.8c-1.8,0-3-1.1-3.1-3c-0.1-3.7,0-7.4,0.1-11.1c0.1-2.6-0.7-4.8-2.7-6.5
			c-2.6-2.2-5.6-2.5-8.6-1.3c-2.9,1.2-4.6,3.4-4.8,6.6c-0.1,1.1,0,2.3,0,3.4C270.4,396.9,270.6,396.9,270.8,397z" fill="white"/>
		<path d="M174.1,393.7c5.4-0.3,10.5-0.6,15.9-0.9c0-1.2,0-2.2,0-3.1c-0.1-1.6-0.3-3.2-0.3-4.8c0-2.1,1.3-3.3,3.1-3.3
			c1.7,0,2.9,1.1,3.1,3.1c0.3,3.5,0.5,7,0.8,10.5c0.2,3.6,0.5,7.2,0.7,10.8c0,0.3,0.1,0.5,0,0.8c-0.1,2-1.4,3.4-3.1,3.4
			c-1.7,0-3-1.2-3.2-3c-0.1-1.2-0.1-2.3-0.2-3.5c-0.1-1.4-0.3-2.8-0.5-4.4c-5.3,0.3-10.4,0.6-15.6,0.9c0,0.9-0.1,1.6-0.1,2.2
			c0,2.1,0.2,4.1,0.2,6.2c0,1.8-1.2,2.9-2.9,2.9c-1.7,0.1-2.9-0.9-3.1-2.7c-0.2-1.3-0.3-2.7-0.4-4c-0.4-5.6-0.7-11.1-1.1-16.7
			c0-0.6-0.1-1.3,0-1.9c0.1-1.9,1.3-3.2,2.9-3.3c1.6-0.1,3,1.1,3.3,2.9c0.2,1.6,0.2,3.2,0.3,4.8C173.9,391.5,174,392.4,174.1,393.7z
			" fill="white"/>
		<path d="M206.2,391.9c5.3-0.2,10.4-0.4,15.9-0.7c0-0.9,0-1.8,0-2.6c-0.1-1.8-0.2-3.6-0.2-5.4c0.1-1.9,1.4-3.1,3-3.2
			c1.6-0.1,2.9,1.1,3.2,3c0.1,0.7,0.1,1.4,0.1,2.2c0.2,6.3,0.4,12.6,0.6,18.9c0,0.6,0.1,1.3,0,1.9c-0.2,1.6-1.4,2.6-2.9,2.7
			c-1.6,0.1-2.9-1-3.2-2.7c-0.1-0.9-0.1-1.8-0.1-2.7c-0.1-1.8-0.2-3.5-0.4-5.6c-5.4,0.2-10.4,0.3-15.8,0.4c0,1.9,0,3.6,0,5.2
			c0,1.1,0.1,2.2,0,3.2c-0.2,1.7-1.5,2.9-3,2.9c-1.5,0-2.7-1-3.1-2.5c-0.1-0.6-0.2-1.2-0.2-1.9c-0.2-6.5-0.4-13-0.7-19.4
			c0-0.6-0.1-1.3,0-1.9c0.2-1.7,1.4-2.9,3-2.9c1.6,0,2.9,1,3.1,2.8C205.9,386.2,206,388.9,206.2,391.9z" fill="white"/>
		<path d="M151.9,406.9c1.9-0.2,4.7-0.5,7.5-0.8c1.2-0.1,2.3-0.2,3.5-0.2c1.6,0.1,2.7,1.3,2.8,2.8c0.1,1.5-0.7,2.8-2.3,3.2
			c-1.2,0.3-2.5,0.4-3.7,0.5c-2.4,0.2-4.9,0.2-7.2,0.7c-6.6,1.2-13.5-3.4-15.6-9.3c-2.7-7.6,1.3-16,8.8-18.6
			c0.7-0.2,1.4-0.4,2.1-0.4c3.8-0.4,7.7-0.8,11.5-1.1c0.4,0,0.7-0.1,1.1-0.1c1.9,0.1,3.1,1.2,3.2,2.9c0.1,1.7-1,3-2.9,3.2
			c-3.6,0.4-7.2,0.7-10.7,1c-5.8,0.5-9.2,5.9-7.1,11.3C144.1,405.3,147.1,407.1,151.9,406.9z" fill="white"/>
		<path d="M353.6,406.2c2.3,0.3,4.3,0.5,6.4,0.7c3.6,0.3,7.2,0.6,10.8,0.9c0.9,0.1,1.8,0.2,2.7,0.4c1.5,0.4,2.4,1.8,2.2,3.3
			c-0.2,1.5-1.2,2.6-2.9,2.7c-0.9,0.1-1.8,0-2.7-0.1c-6.3-0.6-12.5-1.1-18.8-1.7c-3.6-0.3-4.5-1.8-4.2-5.1
			c0.7-6.4,1.2-12.9,1.8-19.3c0.1-0.8,0.2-1.6,0.4-2.4c0.5-1.4,1.7-2.1,3.2-1.9c1.4,0.1,2.5,1.1,2.7,2.6c0.1,0.7,0,1.4,0,2.2
			c-0.4,4.7-0.9,9.5-1.4,14.2C353.7,403.7,353.7,404.9,353.6,406.2z" fill="white"/>
		<path d="M317.1,140.3c-1.5-0.6-2.9-0.9-4.1-1.6c-1.9-1.1-1.9-3.1-0.2-4.4c2.2-1.7,6.4-1.8,8.6-0.1c1.7,1.3,1.8,3.3-0.1,4.4
			C320,139.5,318.5,139.8,317.1,140.3z" fill="white"/>
	</g>
</g>
</svg>
